<?xml version="1.0" encoding="utf-8"?>
<!-- Generator: Adobe Illustrator 19.0.0, SVG Export Plug-In . SVG Version: 6.00 Build 0)  -->
<svg version="1.1" id="Layer_1" xmlns="http://www.w3.org/2000/svg" xmlns:xlink="http://www.w3.org/1999/xlink" x="0px" y="0px"
	 viewBox="0 0 1200 1000" style="enable-background:new 0 0 1200 1000;" xml:space="preserve">
<path id="XMLID_4_" class="st0" d="M585.5,154c-165.7,0-300,125.1-300,279.5c0,87.9,43.5,166.2,111.6,217.5c0.2,0.1,0.2,0.3,0.2,0.5
	v105.2c0,0.5,0.5,0.8,0.9,0.5l101-55.8c0.1-0.1,0.3-0.1,0.5-0.1c27.2,7.5,56,11.6,85.8,11.6c165.7,0,300-125.1,300-279.5
	S751.2,154,585.5,154z M614.9,530l-75.6-81.1c-0.2-0.2-0.5-0.3-0.8-0.1l-145.2,79.9c-0.6,0.3-1.2-0.5-0.8-1l160.9-171.8
	c0.2-0.3,0.7-0.3,0.9,0l77.5,81.2c0.2,0.2,0.5,0.3,0.8,0.1l143.3-79.8c0.6-0.3,1.2,0.5,0.8,1L615.8,530
	C615.5,530.2,615.1,530.2,614.9,530z"/>
</svg>
